<?xml version="1.0" encoding="UTF-8" standalone="no"?>
<svg
   xmlns:dc="http://purl.org/dc/elements/1.1/"
   xmlns:cc="http://creativecommons.org/ns#"
   xmlns:rdf="http://www.w3.org/1999/02/22-rdf-syntax-ns#"
   xmlns:svg="http://www.w3.org/2000/svg"
   xmlns="http://www.w3.org/2000/svg"
   xmlns:sodipodi="http://sodipodi.sourceforge.net/DTD/sodipodi-0.dtd"
   xmlns:inkscape="http://www.inkscape.org/namespaces/inkscape"
   width="210mm"
   height="297mm"
   viewBox="0 0 210 297"
   version="1.1"
   id="svg8"
   inkscape:version="1.0.2-2 (e86c870879, 2021-01-15)"
   sodipodi:docname="water_drop.svg">
  <defs
     id="defs2" />
  <sodipodi:namedview
     id="base"
     pagecolor="#ffffff"
     bordercolor="#666666"
     borderopacity="1.0"
     inkscape:pageopacity="0.0"
     inkscape:pageshadow="2"
     inkscape:zoom="1.4"
     inkscape:cx="213.06324"
     inkscape:cy="462.42378"
     inkscape:document-units="mm"
     inkscape:current-layer="layer1"
     inkscape:document-rotation="0"
     showgrid="false"
     showguides="true"
     inkscape:guide-bbox="true"
     inkscape:snap-bbox="true"
     inkscape:snap-bbox-midpoints="true"
     inkscape:window-width="1920"
     inkscape:window-height="1017"
     inkscape:window-x="-8"
     inkscape:window-y="1072"
     inkscape:window-maximized="1">
    <sodipodi:guide
       position="55.283428,177.6037"
       orientation="1,0"
       id="guide837" />
  </sodipodi:namedview>
  <metadata
     id="metadata5">
    <rdf:RDF>
      <cc:Work
         rdf:about="">
        <dc:format>image/svg+xml</dc:format>
        <dc:type
           rdf:resource="http://purl.org/dc/dcmitype/StillImage" />
        <dc:title></dc:title>
      </cc:Work>
    </rdf:RDF>
  </metadata>
  <g
     inkscape:label="Layer 1"
     inkscape:groupmode="layer"
     id="layer1">
    <path
       style="fill:none;stroke:#000000;stroke-width:1;stroke-miterlimit:4;stroke-dasharray:none;stroke-opacity:1"
       id="path835"
       sodipodi:type="arc"
       sodipodi:cx="55.283428"
       sodipodi:cy="114.97354"
       sodipodi:rx="17.764881"
       sodipodi:ry="17.764881"
       sodipodi:start="5.7595865"
       sodipodi:end="3.6651914"
       sodipodi:arc-type="arc"
       d="m 70.668266,106.0911 a 17.764881,17.764881 0 0 1 -3.965792,22.49113 17.764881,17.764881 0 0 1 -22.838091,0 17.764881,17.764881 0 0 1 -3.965793,-22.49113"
       sodipodi:open="true" />
    <path
       style="fill:none;stroke:#000000;stroke-width:1;stroke-linecap:butt;stroke-linejoin:miter;stroke-opacity:1;stroke-miterlimit:4;stroke-dasharray:none"
       d="M 39.898589,106.0911 55.283427,79.443777 70.668266,106.0911"
       id="path839"
       sodipodi:nodetypes="ccc" />
    <path
       style="fill:#428fff;fill-opacity:1;stroke:none;stroke-width:0.505076;stroke-miterlimit:4;stroke-dasharray:none;stroke-opacity:1"
       d="m 112.22307,132.88034 c -7.21602,-1.27145 -12.890369,-6.91376 -14.140522,-14.06068 -0.265065,-1.51532 -0.264674,-4.34322 7.93e-4,-5.86561 0.252656,-1.44884 0.824098,-3.1892 1.474179,-4.48971 0.56292,-1.12615 15.12017,-26.412479 15.35354,-26.669519 0.12151,-0.133834 1.78833,2.656292 7.62409,12.762121 4.10772,7.113368 7.66653,13.324278 7.90847,13.802028 1.46398,2.89084 2.06488,6.63488 1.58554,9.87918 -0.57164,3.8691 -2.18517,7.07388 -4.95014,9.83194 -2.39996,2.39398 -5.1913,3.91749 -8.57946,4.68268 -1.31298,0.29652 -4.90346,0.3695 -6.27651,0.12757 z"
       id="path845" />
    <path
       style="fill:none;stroke:#000000;stroke-width:0.804715;stroke-miterlimit:4;stroke-dasharray:none;stroke-opacity:1"
       id="path835-2"
       d="m 93.708559,124.30194 a 14.295658,14.295658 0 0 1 0.257957,11.74561 14.295658,14.295658 0 0 1 -8.62936,7.97247"
       sodipodi:type="arc"
       sodipodi:arc-type="arc"
       sodipodi:open="true"
       sodipodi:start="5.8377751"
       sodipodi:end="1.2483967"
       sodipodi:ry="14.295658"
       sodipodi:rx="14.295658"
       sodipodi:cy="130.46091"
       sodipodi:cx="80.807671" />
    <path
       style="fill:none;stroke:#000000;stroke-width:1;stroke-linecap:butt;stroke-linejoin:miter;stroke-miterlimit:4;stroke-dasharray:none;stroke-opacity:1"
       d="m 93.708556,124.30194 c 0,0 1.075103,11.4825 -8.371402,19.71809"
       id="path867"
       sodipodi:nodetypes="cc" />
  </g>
</svg>
